<svg id="visual" viewBox="0 0 1920 1080" width="1920" height="1080" xmlns="http://www.w3.org/2000/svg" xmlns:xlink="http://www.w3.org/1999/xlink" version="1.1"><path d="M0 66L128 109L256 77L384 77L512 77L640 98L768 87L896 109L1024 98L1152 87L1280 87L1408 66L1536 87L1664 98L1792 109L1920 87L1920 0L1792 0L1664 0L1536 0L1408 0L1280 0L1152 0L1024 0L896 0L768 0L640 0L512 0L384 0L256 0L128 0L0 0Z" fill="#ffffff"></path><path d="M0 411L128 347L256 379L384 368L512 390L640 336L768 390L896 444L1024 455L1152 249L1280 379L1408 336L1536 357L1664 303L1792 379L1920 390L1920 85L1792 107L1664 96L1536 85L1408 64L1280 85L1152 85L1024 96L896 107L768 85L640 96L512 75L384 75L256 75L128 107L0 64Z" fill="#f0f0f7"></path><path d="M0 465L128 401L256 476L384 487L512 487L640 422L768 455L896 563L1024 530L1152 347L1280 498L1408 401L1536 465L1664 401L1792 455L1920 444L1920 388L1792 377L1664 301L1536 355L1408 334L1280 377L1152 247L1024 453L896 442L768 388L640 334L512 388L384 366L256 377L128 345L0 409Z" fill="#e2e1ee"></path><path d="M0 552L128 530L256 552L384 563L512 606L640 509L768 519L896 649L1024 595L1152 476L1280 595L1408 552L1536 573L1664 519L1792 563L1920 584L1920 442L1792 453L1664 399L1536 463L1408 399L1280 496L1152 345L1024 528L896 561L768 453L640 420L512 485L384 485L256 474L128 399L0 463Z" fill="#d3d2e6"></path><path d="M0 746L128 779L256 757L384 757L512 865L640 876L768 811L896 833L1024 811L1152 800L1280 779L1408 854L1536 789L1664 865L1792 897L1920 865L1920 582L1792 561L1664 517L1536 571L1408 550L1280 593L1152 474L1024 593L896 647L768 517L640 507L512 604L384 561L256 550L128 528L0 550Z" fill="#c5c3de"></path><path d="M0 833L128 941L256 854L384 919L512 941L640 973L768 973L896 930L1024 941L1152 941L1280 930L1408 973L1536 951L1664 984L1792 973L1920 941L1920 863L1792 895L1664 863L1536 787L1408 852L1280 777L1152 798L1024 809L896 831L768 809L640 874L512 863L384 755L256 755L128 777L0 744Z" fill="#b6b4d5"></path><path d="M0 1081L128 1081L256 1081L384 1081L512 1081L640 1081L768 1081L896 1081L1024 1081L1152 1081L1280 1081L1408 1081L1536 1081L1664 1081L1792 1081L1920 1081L1920 939L1792 971L1664 982L1536 949L1408 971L1280 928L1152 939L1024 939L896 928L768 971L640 971L512 939L384 917L256 852L128 939L0 831Z" fill="#a8a6cd"></path></svg>