<svg id="visual" viewBox="0 0 1920 1080" width="1920" height="1080" xmlns="http://www.w3.org/2000/svg" xmlns:xlink="http://www.w3.org/1999/xlink" version="1.1"><path d="M0 325L107 271L213 465L320 282L427 411L533 163L640 379L747 217L853 325L960 293L1067 131L1173 487L1280 379L1387 314L1493 368L1600 131L1707 282L1813 336L1920 293L1920 0L1813 0L1707 0L1600 0L1493 0L1387 0L1280 0L1173 0L1067 0L960 0L853 0L747 0L640 0L533 0L427 0L320 0L213 0L107 0L0 0Z" fill="#ffffff"></path><path d="M0 519L107 401L213 509L320 444L427 595L533 239L640 487L747 379L853 487L960 336L1067 260L1173 617L1280 552L1387 411L1493 476L1600 195L1707 455L1813 498L1920 455L1920 291L1813 334L1707 280L1600 129L1493 366L1387 312L1280 377L1173 485L1067 129L960 291L853 323L747 215L640 377L533 161L427 409L320 280L213 463L107 269L0 323Z" fill="#ededf5"></path><path d="M0 606L107 552L213 584L320 768L427 725L533 638L640 768L747 638L853 627L960 617L1067 660L1173 735L1280 725L1387 627L1493 595L1600 789L1707 584L1813 627L1920 768L1920 453L1813 496L1707 453L1600 193L1493 474L1387 409L1280 550L1173 615L1067 258L960 334L853 485L747 377L640 485L533 237L427 593L320 442L213 507L107 399L0 517Z" fill="#dcdbeb"></path><path d="M0 779L107 811L213 725L320 908L427 768L533 876L640 833L747 854L853 789L960 833L1067 887L1173 887L1280 865L1387 768L1493 746L1600 876L1707 800L1813 746L1920 843L1920 766L1813 625L1707 582L1600 787L1493 593L1387 625L1280 723L1173 733L1067 658L960 615L853 625L747 636L640 766L533 636L427 723L320 766L213 582L107 550L0 604Z" fill="#cac9e1"></path><path d="M0 984L107 962L213 941L320 941L427 951L533 919L640 919L747 919L853 908L960 1027L1067 1027L1173 984L1280 930L1387 962L1493 951L1600 1005L1707 1027L1813 941L1920 962L1920 841L1813 744L1707 798L1600 874L1493 744L1387 766L1280 863L1173 885L1067 885L960 831L853 787L747 852L640 831L533 874L427 766L320 906L213 723L107 809L0 777Z" fill="#b9b7d7"></path><path d="M0 1081L107 1081L213 1081L320 1081L427 1081L533 1081L640 1081L747 1081L853 1081L960 1081L1067 1081L1173 1081L1280 1081L1387 1081L1493 1081L1600 1081L1707 1081L1813 1081L1920 1081L1920 960L1813 939L1707 1025L1600 1003L1493 949L1387 960L1280 928L1173 982L1067 1025L960 1025L853 906L747 917L640 917L533 917L427 949L320 939L213 939L107 960L0 982Z" fill="#a8a6cd"></path></svg>