<svg id="visual" viewBox="0 0 1920 1080" width="1920" height="1080" xmlns="http://www.w3.org/2000/svg" xmlns:xlink="http://www.w3.org/1999/xlink" version="1.1"><path d="M0 87L160 44L320 206L480 163L640 141L800 163L960 228L1120 141L1280 98L1440 109L1600 163L1760 174L1920 206L1920 0L1760 0L1600 0L1440 0L1280 0L1120 0L960 0L800 0L640 0L480 0L320 0L160 0L0 0Z" fill="#ffffff"></path><path d="M0 152L160 141L320 303L480 249L640 260L800 228L960 260L1120 228L1280 185L1440 131L1600 206L1760 314L1920 239L1920 204L1760 172L1600 161L1440 107L1280 96L1120 139L960 226L800 161L640 139L480 161L320 204L160 42L0 85Z" fill="#f0f0f7"></path><path d="M0 206L160 195L320 336L480 303L640 422L800 325L960 293L1120 325L1280 249L1440 228L1600 390L1760 411L1920 303L1920 237L1760 312L1600 204L1440 129L1280 183L1120 226L960 258L800 226L640 258L480 247L320 301L160 139L0 150Z" fill="#e2e1ee"></path><path d="M0 757L160 444L320 444L480 498L640 606L800 714L960 563L1120 563L1280 509L1440 552L1600 563L1760 552L1920 573L1920 301L1760 409L1600 388L1440 226L1280 247L1120 323L960 291L800 323L640 420L480 301L320 334L160 193L0 204Z" fill="#d3d2e6"></path><path d="M0 941L160 681L320 843L480 930L640 735L800 962L960 800L1120 779L1280 919L1440 703L1600 811L1760 843L1920 789L1920 571L1760 550L1600 561L1440 550L1280 507L1120 561L960 561L800 712L640 604L480 496L320 442L160 442L0 755Z" fill="#c5c3de"></path><path d="M0 1005L160 768L320 951L480 1016L640 876L800 1027L960 962L1120 908L1280 951L1440 854L1600 843L1760 897L1920 887L1920 787L1760 841L1600 809L1440 701L1280 917L1120 777L960 798L800 960L640 733L480 928L320 841L160 679L0 939Z" fill="#b6b4d5"></path><path d="M0 1081L160 1081L320 1081L480 1081L640 1081L800 1081L960 1081L1120 1081L1280 1081L1440 1081L1600 1081L1760 1081L1920 1081L1920 885L1760 895L1600 841L1440 852L1280 949L1120 906L960 960L800 1025L640 874L480 1014L320 949L160 766L0 1003Z" fill="#a8a6cd"></path></svg>