<svg id="visual" viewBox="0 0 1920 1080" width="1920" height="1080" xmlns="http://www.w3.org/2000/svg" xmlns:xlink="http://www.w3.org/1999/xlink" version="1.1"><path d="M0 185L240 152L480 185L720 66L960 120L1200 77L1440 98L1680 174L1920 163L1920 0L1680 0L1440 0L1200 0L960 0L720 0L480 0L240 0L0 0Z" fill="#ffffff"></path><path d="M0 465L240 519L480 336L720 509L960 487L1200 455L1440 606L1680 584L1920 509L1920 161L1680 172L1440 96L1200 75L960 118L720 64L480 183L240 150L0 183Z" fill="#e9e8f2"></path><path d="M0 671L240 789L480 725L720 671L960 746L1200 671L1440 822L1680 768L1920 703L1920 507L1680 582L1440 604L1200 453L960 485L720 507L480 334L240 517L0 463Z" fill="#d3d2e6"></path><path d="M0 811L240 887L480 930L720 865L960 919L1200 746L1440 897L1680 930L1920 800L1920 701L1680 766L1440 820L1200 669L960 744L720 669L480 723L240 787L0 669Z" fill="#bdbcda"></path><path d="M0 1081L240 1081L480 1081L720 1081L960 1081L1200 1081L1440 1081L1680 1081L1920 1081L1920 798L1680 928L1440 895L1200 744L960 917L720 863L480 928L240 885L0 809Z" fill="#a8a6cd"></path></svg>