<svg id="visual" viewBox="0 0 1920 1080" width="1920" height="1080" xmlns="http://www.w3.org/2000/svg" xmlns:xlink="http://www.w3.org/1999/xlink" version="1.1"><path d="M0 98L128 163L256 98L384 120L512 152L640 185L768 131L896 141L1024 87L1152 131L1280 109L1408 141L1536 152L1664 87L1792 174L1920 87L1920 0L1792 0L1664 0L1536 0L1408 0L1280 0L1152 0L1024 0L896 0L768 0L640 0L512 0L384 0L256 0L128 0L0 0Z" fill="#ffffff"></path><path d="M0 422L128 422L256 422L384 368L512 433L640 422L768 314L896 347L1024 347L1152 444L1280 465L1408 487L1536 498L1664 271L1792 336L1920 325L1920 85L1792 172L1664 85L1536 150L1408 139L1280 107L1152 129L1024 85L896 139L768 129L640 183L512 150L384 118L256 96L128 161L0 96Z" fill="#ededf5"></path><path d="M0 487L128 541L256 487L384 455L512 498L640 530L768 455L896 487L1024 487L1152 584L1280 606L1408 563L1536 584L1664 347L1792 455L1920 401L1920 323L1792 334L1664 269L1536 496L1408 485L1280 463L1152 442L1024 345L896 345L768 312L640 420L512 431L384 366L256 420L128 420L0 420Z" fill="#dcdbeb"></path><path d="M0 584L128 681L256 606L384 595L512 584L640 660L768 584L896 617L1024 584L1152 649L1280 746L1408 660L1536 671L1664 498L1792 573L1920 563L1920 399L1792 453L1664 345L1536 582L1408 561L1280 604L1152 582L1024 485L896 485L768 453L640 528L512 496L384 453L256 485L128 539L0 485Z" fill="#cac9e1"></path><path d="M0 908L128 919L256 908L384 897L512 887L640 887L768 908L896 941L1024 887L1152 833L1280 930L1408 897L1536 962L1664 843L1792 919L1920 865L1920 561L1792 571L1664 496L1536 669L1408 658L1280 744L1152 647L1024 582L896 615L768 582L640 658L512 582L384 593L256 604L128 679L0 582Z" fill="#b9b7d7"></path><path d="M0 1081L128 1081L256 1081L384 1081L512 1081L640 1081L768 1081L896 1081L1024 1081L1152 1081L1280 1081L1408 1081L1536 1081L1664 1081L1792 1081L1920 1081L1920 863L1792 917L1664 841L1536 960L1408 895L1280 928L1152 831L1024 885L896 939L768 906L640 885L512 885L384 895L256 906L128 917L0 906Z" fill="#a8a6cd"></path></svg>