<svg id="visual" viewBox="0 0 1920 1080" width="1920" height="1080" xmlns="http://www.w3.org/2000/svg" xmlns:xlink="http://www.w3.org/1999/xlink" version="1.1"><rect x="0" y="0" width="1920" height="1080" fill="#fff"></rect><path d="M0 323L16 309.2C32 295.3 64 267.7 96 237C128 206.3 160 172.7 192 170.3C224 168 256 197 288 220C320 243 352 260 384 267.3C416 274.7 448 272.3 480 272.7C512 273 544 276 576 261.5C608 247 640 215 672 186.7C704 158.3 736 133.7 768 154.2C800 174.7 832 240.3 864 251C896 261.7 928 217.3 960 208.7C992 200 1024 227 1056 242.8C1088 258.7 1120 263.3 1152 246C1184 228.7 1216 189.3 1248 181C1280 172.7 1312 195.3 1344 192.2C1376 189 1408 160 1440 165.5C1472 171 1504 211 1536 214.3C1568 217.7 1600 184.3 1632 172C1664 159.7 1696 168.3 1728 161.2C1760 154 1792 131 1824 130.7C1856 130.3 1888 152.7 1904 163.8L1920 175L1920 0L1904 0C1888 0 1856 0 1824 0C1792 0 1760 0 1728 0C1696 0 1664 0 1632 0C1600 0 1568 0 1536 0C1504 0 1472 0 1440 0C1408 0 1376 0 1344 0C1312 0 1280 0 1248 0C1216 0 1184 0 1152 0C1120 0 1088 0 1056 0C1024 0 992 0 960 0C928 0 896 0 864 0C832 0 800 0 768 0C736 0 704 0 672 0C640 0 608 0 576 0C544 0 512 0 480 0C448 0 416 0 384 0C352 0 320 0 288 0C256 0 224 0 192 0C160 0 128 0 96 0C64 0 32 0 16 0L0 0Z" fill="#a8a6cd" stroke-linecap="round" stroke-linejoin="miter"></path></svg>