
<svg id="visual" viewBox="0 0 1920 1080" width="1920" height="1080" xmlns="http://www.w3.org/2000/svg" xmlns:xlink="http://www.w3.org/1999/xlink" version="1.1"><path d="M0 77L21.3 71.5C42.7 66 85.3 55 128 60.3C170.7 65.7 213.3 87.3 256 85.5C298.7 83.7 341.3 58.3 384 51.2C426.7 44 469.3 55 512 76.7C554.7 98.3 597.3 130.7 640 132.5C682.7 134.3 725.3 105.7 768 103.8C810.7 102 853.3 127 896 130.5C938.7 134 981.3 116 1024 110.7C1066.7 105.3 1109.3 112.7 1152 121.7C1194.7 130.7 1237.3 141.3 1280 135.8C1322.7 130.3 1365.3 108.7 1408 101.5C1450.7 94.3 1493.3 101.7 1536 109C1578.7 116.3 1621.3 123.7 1664 114.7C1706.7 105.7 1749.3 80.3 1792 64C1834.7 47.7 1877.3 40.3 1898.7 36.7L1920 33L1920 0L1898.7 0C1877.3 0 1834.7 0 1792 0C1749.3 0 1706.7 0 1664 0C1621.3 0 1578.7 0 1536 0C1493.3 0 1450.7 0 1408 0C1365.3 0 1322.7 0 1280 0C1237.3 0 1194.7 0 1152 0C1109.3 0 1066.7 0 1024 0C981.3 0 938.7 0 896 0C853.3 0 810.7 0 768 0C725.3 0 682.7 0 640 0C597.3 0 554.7 0 512 0C469.3 0 426.7 0 384 0C341.3 0 298.7 0 256 0C213.3 0 170.7 0 128 0C85.3 0 42.7 0 21.3 0L0 0Z" fill="#dad9f5"></path><path d="M0 185L21.3 188.5C42.7 192 85.3 199 128 251.2C170.7 303.3 213.3 400.7 256 402.5C298.7 404.3 341.3 310.7 384 299.8C426.7 289 469.3 361 512 371.8C554.7 382.7 597.3 332.3 640 327C682.7 321.7 725.3 361.3 768 373.8C810.7 386.3 853.3 371.7 896 339.2C938.7 306.7 981.3 256.3 1024 265.3C1066.7 274.3 1109.3 342.7 1152 364.3C1194.7 386 1237.3 361 1280 344.8C1322.7 328.7 1365.3 321.3 1408 342.8C1450.7 364.3 1493.3 414.7 1536 411.2C1578.7 407.7 1621.3 350.3 1664 301.8C1706.7 253.3 1749.3 213.7 1792 206.3C1834.7 199 1877.3 224 1898.7 236.5L1920 249L1920 31L1898.7 34.7C1877.3 38.3 1834.7 45.7 1792 62C1749.3 78.3 1706.7 103.7 1664 112.7C1621.3 121.7 1578.7 114.3 1536 107C1493.3 99.7 1450.7 92.3 1408 99.5C1365.3 106.7 1322.7 128.3 1280 133.8C1237.3 139.3 1194.7 128.7 1152 119.7C1109.3 110.7 1066.7 103.3 1024 108.7C981.3 114 938.7 132 896 128.5C853.3 125 810.7 100 768 101.8C725.3 103.7 682.7 132.3 640 130.5C597.3 128.7 554.7 96.3 512 74.7C469.3 53 426.7 42 384 49.2C341.3 56.3 298.7 81.7 256 83.5C213.3 85.3 170.7 63.7 128 58.3C85.3 53 42.7 64 21.3 69.5L0 75Z" fill="#d1cff2"></path><path d="M0 293L21.3 287.5C42.7 282 85.3 271 128 317.7C170.7 364.3 213.3 468.7 256 466.8C298.7 465 341.3 357 384 342.7C426.7 328.3 469.3 407.7 512 418.5C554.7 429.3 597.3 371.7 640 377C682.7 382.3 725.3 450.7 768 474.2C810.7 497.7 853.3 476.3 896 433.2C938.7 390 981.3 325 1024 332.2C1066.7 339.3 1109.3 418.7 1152 438.5C1194.7 458.3 1237.3 418.7 1280 393.5C1322.7 368.3 1365.3 357.7 1408 386.5C1450.7 415.3 1493.3 483.7 1536 492.7C1578.7 501.7 1621.3 451.3 1664 406.3C1706.7 361.3 1749.3 321.7 1792 314.3C1834.7 307 1877.3 332 1898.7 344.5L1920 357L1920 247L1898.7 234.5C1877.3 222 1834.7 197 1792 204.3C1749.3 211.7 1706.7 251.3 1664 299.8C1621.3 348.3 1578.7 405.7 1536 409.2C1493.3 412.7 1450.7 362.3 1408 340.8C1365.3 319.3 1322.7 326.7 1280 342.8C1237.3 359 1194.7 384 1152 362.3C1109.3 340.7 1066.7 272.3 1024 263.3C981.3 254.3 938.7 304.7 896 337.2C853.3 369.7 810.7 384.3 768 371.8C725.3 359.3 682.7 319.7 640 325C597.3 330.3 554.7 380.7 512 369.8C469.3 359 426.7 287 384 297.8C341.3 308.7 298.7 402.3 256 400.5C213.3 398.7 170.7 301.3 128 249.2C85.3 197 42.7 190 21.3 186.5L0 183Z" fill="#c7c4ee"></path><path d="M0 357L21.3 358.8C42.7 360.7 85.3 364.3 128 420.2C170.7 476 213.3 584 256 593C298.7 602 341.3 512 384 499.5C426.7 487 469.3 552 512 546.7C554.7 541.3 597.3 465.7 640 465.7C682.7 465.7 725.3 541.3 768 571.8C810.7 602.3 853.3 587.7 896 539C938.7 490.3 981.3 407.7 1024 406C1066.7 404.3 1109.3 483.7 1152 516C1194.7 548.3 1237.3 533.7 1280 515.7C1322.7 497.7 1365.3 476.3 1408 507C1450.7 537.7 1493.3 620.3 1536 618.5C1578.7 616.7 1621.3 530.3 1664 478.2C1706.7 426 1749.3 408 1792 420.5C1834.7 433 1877.3 476 1898.7 497.5L1920 519L1920 355L1898.7 342.5C1877.3 330 1834.7 305 1792 312.3C1749.3 319.7 1706.7 359.3 1664 404.3C1621.3 449.3 1578.7 499.7 1536 490.7C1493.3 481.7 1450.7 413.3 1408 384.5C1365.3 355.7 1322.7 366.3 1280 391.5C1237.3 416.7 1194.7 456.3 1152 436.5C1109.3 416.7 1066.7 337.3 1024 330.2C981.3 323 938.7 388 896 431.2C853.3 474.3 810.7 495.7 768 472.2C725.3 448.7 682.7 380.3 640 375C597.3 369.7 554.7 427.3 512 416.5C469.3 405.7 426.7 326.3 384 340.7C341.3 355 298.7 463 256 464.8C213.3 466.7 170.7 362.3 128 315.7C85.3 269 42.7 280 21.3 285.5L0 291Z" fill="#bab8eb"></path><path d="M0 379L21.3 389.8C42.7 400.7 85.3 422.3 128 487.2C170.7 552 213.3 660 256 670.8C298.7 681.7 341.3 595.3 384 582.7C426.7 570 469.3 631 512 614.7C554.7 598.3 597.3 504.7 640 501.2C682.7 497.7 725.3 584.3 768 620.3C810.7 656.3 853.3 641.7 896 589.3C938.7 537 981.3 447 1024 448.8C1066.7 450.7 1109.3 544.3 1152 578.7C1194.7 613 1237.3 588 1280 562.8C1322.7 537.7 1365.3 512.3 1408 546.5C1450.7 580.7 1493.3 674.3 1536 679.7C1578.7 685 1621.3 602 1664 551.5C1706.7 501 1749.3 483 1792 497.5C1834.7 512 1877.3 559 1898.7 582.5L1920 606L1920 517L1898.7 495.5C1877.3 474 1834.7 431 1792 418.5C1749.3 406 1706.7 424 1664 476.2C1621.3 528.3 1578.7 614.7 1536 616.5C1493.3 618.3 1450.7 535.7 1408 505C1365.3 474.3 1322.7 495.7 1280 513.7C1237.3 531.7 1194.7 546.3 1152 514C1109.3 481.7 1066.7 402.3 1024 404C981.3 405.7 938.7 488.3 896 537C853.3 585.7 810.7 600.3 768 569.8C725.3 539.3 682.7 463.7 640 463.7C597.3 463.7 554.7 539.3 512 544.7C469.3 550 426.7 485 384 497.5C341.3 510 298.7 600 256 591C213.3 582 170.7 474 128 418.2C85.3 362.3 42.7 358.7 21.3 356.8L0 355Z" fill="#b3b0e9"></path><path d="M0 433L21.3 445.7C42.7 458.3 85.3 483.7 128 550.3C170.7 617 213.3 725 256 735.7C298.7 746.3 341.3 659.7 384 645.2C426.7 630.7 469.3 688.3 512 670.3C554.7 652.3 597.3 558.7 640 549.7C682.7 540.7 725.3 616.3 768 654.2C810.7 692 853.3 692 896 639.8C938.7 587.7 981.3 483.3 1024 487C1066.7 490.7 1109.3 602.3 1152 645.5C1194.7 688.7 1237.3 663.3 1280 629.2C1322.7 595 1365.3 552 1408 580.8C1450.7 609.7 1493.3 710.3 1536 722.8C1578.7 735.3 1621.3 659.7 1664 607.5C1706.7 555.3 1749.3 526.7 1792 542.8C1834.7 559 1877.3 620 1898.7 650.5L1920 681L1920 604L1898.7 580.5C1877.3 557 1834.7 510 1792 495.5C1749.3 481 1706.7 499 1664 549.5C1621.3 600 1578.7 683 1536 677.7C1493.3 672.3 1450.7 578.7 1408 544.5C1365.3 510.3 1322.7 535.7 1280 560.8C1237.3 586 1194.7 611 1152 576.7C1109.3 542.3 1066.7 448.7 1024 446.8C981.3 445 938.7 535 896 587.3C853.3 639.7 810.7 654.3 768 618.3C725.3 582.3 682.7 495.7 640 499.2C597.3 502.7 554.7 596.3 512 612.7C469.3 629 426.7 568 384 580.7C341.3 593.3 298.7 679.7 256 668.8C213.3 658 170.7 550 128 485.2C85.3 420.3 42.7 398.7 21.3 387.8L0 377Z" fill="#b3b0e9"></path><path d="M0 714L21.3 715.8C42.7 717.7 85.3 721.3 128 760.8C170.7 800.3 213.3 875.7 256 897.2C298.7 918.7 341.3 886.3 384 877.3C426.7 868.3 469.3 882.7 512 880.8C554.7 879 597.3 861 640 857.5C682.7 854 725.3 865 768 865C810.7 865 853.3 854 896 825.2C938.7 796.3 981.3 749.7 1024 753.3C1066.7 757 1109.3 811 1152 838C1194.7 865 1237.3 865 1280 841.7C1322.7 818.3 1365.3 771.7 1408 786C1450.7 800.3 1493.3 875.7 1536 886.3C1578.7 897 1621.3 843 1664 830.5C1706.7 818 1749.3 847 1792 850.7C1834.7 854.3 1877.3 832.7 1898.7 821.8L1920 811L1920 679L1898.7 648.5C1877.3 618 1834.7 557 1792 540.8C1749.3 524.7 1706.7 553.3 1664 605.5C1621.3 657.7 1578.7 733.3 1536 720.8C1493.3 708.3 1450.7 607.7 1408 578.8C1365.3 550 1322.7 593 1280 627.2C1237.3 661.3 1194.7 686.7 1152 643.5C1109.3 600.3 1066.7 488.7 1024 485C981.3 481.3 938.7 585.7 896 637.8C853.3 690 810.7 690 768 652.2C725.3 614.3 682.7 538.7 640 547.7C597.3 556.7 554.7 650.3 512 668.3C469.3 686.3 426.7 628.7 384 643.2C341.3 657.7 298.7 744.3 256 733.7C213.3 723 170.7 615 128 548.3C85.3 481.7 42.7 456.3 21.3 443.7L0 431Z" fill="#bab8eb"></path><path d="M0 941L21.3 939.2C42.7 937.3 85.3 933.7 128 944.3C170.7 955 213.3 980 256 976.3C298.7 972.7 341.3 940.3 384 931.3C426.7 922.3 469.3 936.7 512 954.7C554.7 972.7 597.3 994.3 640 992.7C682.7 991 725.3 966 768 967.8C810.7 969.7 853.3 998.3 896 1001.8C938.7 1005.3 981.3 983.7 1024 974.7C1066.7 965.7 1109.3 969.3 1152 971.2C1194.7 973 1237.3 973 1280 967.7C1322.7 962.3 1365.3 951.7 1408 957C1450.7 962.3 1493.3 983.7 1536 990.8C1578.7 998 1621.3 991 1664 978.5C1706.7 966 1749.3 948 1792 942.5C1834.7 937 1877.3 944 1898.7 947.5L1920 951L1920 809L1898.7 819.8C1877.3 830.7 1834.7 852.3 1792 848.7C1749.3 845 1706.7 816 1664 828.5C1621.3 841 1578.7 895 1536 884.3C1493.3 873.7 1450.7 798.3 1408 784C1365.3 769.7 1322.7 816.3 1280 839.7C1237.3 863 1194.7 863 1152 836C1109.3 809 1066.7 755 1024 751.3C981.3 747.7 938.7 794.3 896 823.2C853.3 852 810.7 863 768 863C725.3 863 682.7 852 640 855.5C597.3 859 554.7 877 512 878.8C469.3 880.7 426.7 866.3 384 875.3C341.3 884.3 298.7 916.7 256 895.2C213.3 873.7 170.7 798.3 128 758.8C85.3 719.3 42.7 715.7 21.3 713.8L0 712Z" fill="#c7c4ee"></path><path d="M0 1027L21.3 1028.8C42.7 1030.7 85.3 1034.3 128 1038C170.7 1041.7 213.3 1045.3 256 1039.8C298.7 1034.3 341.3 1019.7 384 1021.3C426.7 1023 469.3 1041 512 1046.5C554.7 1052 597.3 1045 640 1037.8C682.7 1030.7 725.3 1023.3 768 1025.2C810.7 1027 853.3 1038 896 1038C938.7 1038 981.3 1027 1024 1023.3C1066.7 1019.7 1109.3 1023.3 1152 1027C1194.7 1030.7 1237.3 1034.3 1280 1032.5C1322.7 1030.7 1365.3 1023.3 1408 1023.3C1450.7 1023.3 1493.3 1030.7 1536 1030.7C1578.7 1030.7 1621.3 1023.3 1664 1016.2C1706.7 1009 1749.3 1002 1792 1009.2C1834.7 1016.3 1877.3 1037.7 1898.7 1048.3L1920 1059L1920 949L1898.7 945.5C1877.3 942 1834.7 935 1792 940.5C1749.3 946 1706.7 964 1664 976.5C1621.3 989 1578.7 996 1536 988.8C1493.3 981.7 1450.7 960.3 1408 955C1365.3 949.7 1322.7 960.3 1280 965.7C1237.3 971 1194.7 971 1152 969.2C1109.3 967.3 1066.7 963.7 1024 972.7C981.3 981.7 938.7 1003.3 896 999.8C853.3 996.3 810.7 967.7 768 965.8C725.3 964 682.7 989 640 990.7C597.3 992.3 554.7 970.7 512 952.7C469.3 934.7 426.7 920.3 384 929.3C341.3 938.3 298.7 970.7 256 974.3C213.3 978 170.7 953 128 942.3C85.3 931.7 42.7 935.3 21.3 937.2L0 939Z" fill="#d1cff2"></path><path d="M0 1081L21.3 1081C42.7 1081 85.3 1081 128 1081C170.7 1081 213.3 1081 256 1081C298.7 1081 341.3 1081 384 1081C426.7 1081 469.3 1081 512 1081C554.7 1081 597.3 1081 640 1081C682.7 1081 725.3 1081 768 1081C810.7 1081 853.3 1081 896 1081C938.7 1081 981.3 1081 1024 1081C1066.7 1081 1109.3 1081 1152 1081C1194.7 1081 1237.3 1081 1280 1081C1322.7 1081 1365.3 1081 1408 1081C1450.7 1081 1493.3 1081 1536 1081C1578.7 1081 1621.3 1081 1664 1081C1706.7 1081 1749.3 1081 1792 1081C1834.7 1081 1877.3 1081 1898.7 1081L1920 1081L1920 1057L1898.7 1046.3C1877.3 1035.7 1834.7 1014.3 1792 1007.2C1749.3 1000 1706.7 1007 1664 1014.2C1621.3 1021.3 1578.7 1028.7 1536 1028.7C1493.3 1028.7 1450.7 1021.3 1408 1021.3C1365.3 1021.3 1322.7 1028.7 1280 1030.5C1237.3 1032.3 1194.7 1028.7 1152 1025C1109.3 1021.3 1066.7 1017.7 1024 1021.3C981.3 1025 938.7 1036 896 1036C853.3 1036 810.7 1025 768 1023.2C725.3 1021.3 682.7 1028.7 640 1035.8C597.3 1043 554.7 1050 512 1044.5C469.3 1039 426.7 1021 384 1019.3C341.3 1017.7 298.7 1032.3 256 1037.8C213.3 1043.3 170.7 1039.7 128 1036C85.3 1032.3 42.7 1028.7 21.3 1026.8L0 1025Z" fill="#dad9f5"></path></svg>