<svg id="visual" viewBox="0 0 1920 1080" width="1920" height="1080" xmlns="http://www.w3.org/2000/svg" xmlns:xlink="http://www.w3.org/1999/xlink" version="1.1"><rect x="0" y="0" width="1920" height="1080" fill="#fff"></rect><path d="M0 686L15.2 669.5C30.3 653 60.7 620 91.2 611.3C121.7 602.7 152.3 618.3 182.8 598.3C213.3 578.3 243.7 522.7 274.2 518.5C304.7 514.3 335.3 561.7 365.8 588C396.3 614.3 426.7 619.7 457.2 594.2C487.7 568.7 518.3 512.3 548.8 497.8C579.3 483.3 609.7 510.7 640 525C670.3 539.3 700.7 540.7 731.2 524.2C761.7 507.7 792.3 473.3 822.8 476.8C853.3 480.3 883.7 521.7 914.2 560.7C944.7 599.7 975.3 636.3 1005.8 621C1036.3 605.7 1066.7 538.3 1097.2 566C1127.7 593.7 1158.3 716.3 1188.8 752.2C1219.3 788 1249.7 737 1280 724.7C1310.3 712.3 1340.7 738.7 1371.2 706.5C1401.7 674.3 1432.3 583.7 1462.8 578.2C1493.3 572.7 1523.7 652.3 1554.2 642.7C1584.7 633 1615.3 534 1645.8 546.2C1676.3 558.3 1706.7 681.7 1737.2 701C1767.7 720.3 1798.3 635.7 1828.8 588.8C1859.3 542 1889.7 533 1904.8 528.5L1920 524L1920 1081L1904.8 1081C1889.7 1081 1859.3 1081 1828.8 1081C1798.3 1081 1767.7 1081 1737.2 1081C1706.7 1081 1676.3 1081 1645.8 1081C1615.3 1081 1584.7 1081 1554.2 1081C1523.7 1081 1493.3 1081 1462.8 1081C1432.3 1081 1401.7 1081 1371.2 1081C1340.7 1081 1310.3 1081 1280 1081C1249.7 1081 1219.3 1081 1188.8 1081C1158.3 1081 1127.7 1081 1097.2 1081C1066.7 1081 1036.3 1081 1005.8 1081C975.3 1081 944.7 1081 914.2 1081C883.7 1081 853.3 1081 822.8 1081C792.3 1081 761.7 1081 731.2 1081C700.7 1081 670.3 1081 640 1081C609.7 1081 579.3 1081 548.8 1081C518.3 1081 487.7 1081 457.2 1081C426.7 1081 396.3 1081 365.8 1081C335.3 1081 304.7 1081 274.2 1081C243.7 1081 213.3 1081 182.8 1081C152.3 1081 121.7 1081 91.2 1081C60.7 1081 30.3 1081 15.2 1081L0 1081Z" fill="#a8a6cd" stroke-linecap="round" stroke-linejoin="miter"></path></svg>