<svg id="visual" viewBox="0 0 1920 1080" width="1920" height="1080" xmlns="http://www.w3.org/2000/svg" xmlns:xlink="http://www.w3.org/1999/xlink" version="1.1"><rect x="0" y="0" width="1920" height="1080" fill="#fff"></rect><path d="M0 439L175 309L349 361L524 348L698 531L873 448L1047 297L1222 493L1396 476L1571 477L1745 296L1920 492L1920 1081L1745 1081L1571 1081L1396 1081L1222 1081L1047 1081L873 1081L698 1081L524 1081L349 1081L175 1081L0 1081Z" fill="#ffffff"></path><path d="M0 567L175 470L349 556L524 461L698 451L873 571L1047 429L1222 589L1396 407L1571 519L1745 555L1920 586L1920 1081L1745 1081L1571 1081L1396 1081L1222 1081L1047 1081L873 1081L698 1081L524 1081L349 1081L175 1081L0 1081Z" fill="#f0f0f7"></path><path d="M0 668L175 591L349 608L524 582L698 538L873 647L1047 522L1222 553L1396 507L1571 522L1745 544L1920 532L1920 1081L1745 1081L1571 1081L1396 1081L1222 1081L1047 1081L873 1081L698 1081L524 1081L349 1081L175 1081L0 1081Z" fill="#e2e1ee"></path><path d="M0 726L175 708L349 752L524 743L698 660L873 633L1047 717L1222 667L1396 738L1571 700L1745 655L1920 752L1920 1081L1745 1081L1571 1081L1396 1081L1222 1081L1047 1081L873 1081L698 1081L524 1081L349 1081L175 1081L0 1081Z" fill="#d3d2e6"></path><path d="M0 707L175 706L349 771L524 816L698 703L873 841L1047 794L1222 739L1396 725L1571 739L1745 742L1920 760L1920 1081L1745 1081L1571 1081L1396 1081L1222 1081L1047 1081L873 1081L698 1081L524 1081L349 1081L175 1081L0 1081Z" fill="#c5c3de"></path><path d="M0 897L175 863L349 837L524 899L698 908L873 821L1047 826L1222 810L1396 851L1571 886L1745 876L1920 843L1920 1081L1745 1081L1571 1081L1396 1081L1222 1081L1047 1081L873 1081L698 1081L524 1081L349 1081L175 1081L0 1081Z" fill="#b6b4d5"></path><path d="M0 939L175 989L349 935L524 999L698 976L873 973L1047 999L1222 937L1396 956L1571 913L1745 977L1920 968L1920 1081L1745 1081L1571 1081L1396 1081L1222 1081L1047 1081L873 1081L698 1081L524 1081L349 1081L175 1081L0 1081Z" fill="#a8a6cd"></path></svg>