<svg id="visual" viewBox="0 0 1920 1080" width="1920" height="1080" xmlns="http://www.w3.org/2000/svg" xmlns:xlink="http://www.w3.org/1999/xlink" version="1.1"><rect x="0" y="0" width="1920" height="1080" fill="#fff"></rect><path d="M0 657L107 701L213 586L320 518L427 557L533 624L640 607L747 545L853 585L960 559L1067 555L1173 547L1280 636L1387 713L1493 578L1600 679L1707 526L1813 594L1920 630L1920 0L1813 0L1707 0L1600 0L1493 0L1387 0L1280 0L1173 0L1067 0L960 0L853 0L747 0L640 0L533 0L427 0L320 0L213 0L107 0L0 0Z" fill="#ffffff"></path><path d="M0 486L107 474L213 510L320 508L427 482L533 643L640 600L747 519L853 585L960 642L1067 589L1173 606L1280 593L1387 584L1493 598L1600 494L1707 629L1813 481L1920 557L1920 0L1813 0L1707 0L1600 0L1493 0L1387 0L1280 0L1173 0L1067 0L960 0L853 0L747 0L640 0L533 0L427 0L320 0L213 0L107 0L0 0Z" fill="#f7f7fa"></path><path d="M0 594L107 494L213 592L320 573L427 593L533 529L640 479L747 565L853 572L960 556L1067 507L1173 566L1280 453L1387 447L1493 600L1600 553L1707 529L1813 438L1920 527L1920 0L1813 0L1707 0L1600 0L1493 0L1387 0L1280 0L1173 0L1067 0L960 0L853 0L747 0L640 0L533 0L427 0L320 0L213 0L107 0L0 0Z" fill="#efeef6"></path><path d="M0 442L107 415L213 450L320 385L427 537L533 432L640 504L747 385L853 518L960 457L1067 422L1173 463L1280 527L1387 385L1493 482L1600 511L1707 528L1813 448L1920 427L1920 0L1813 0L1707 0L1600 0L1493 0L1387 0L1280 0L1173 0L1067 0L960 0L853 0L747 0L640 0L533 0L427 0L320 0L213 0L107 0L0 0Z" fill="#e7e6f1"></path><path d="M0 346L107 454L213 434L320 486L427 409L533 456L640 402L747 355L853 486L960 417L1067 408L1173 483L1280 383L1387 357L1493 465L1600 470L1707 384L1813 408L1920 349L1920 0L1813 0L1707 0L1600 0L1493 0L1387 0L1280 0L1173 0L1067 0L960 0L853 0L747 0L640 0L533 0L427 0L320 0L213 0L107 0L0 0Z" fill="#dfdeed"></path><path d="M0 305L107 397L213 412L320 379L427 430L533 408L640 424L747 430L853 378L960 394L1067 357L1173 336L1280 381L1387 330L1493 315L1600 379L1707 413L1813 380L1920 343L1920 0L1813 0L1707 0L1600 0L1493 0L1387 0L1280 0L1173 0L1067 0L960 0L853 0L747 0L640 0L533 0L427 0L320 0L213 0L107 0L0 0Z" fill="#d7d6e8"></path><path d="M0 255L107 360L213 317L320 370L427 350L533 314L640 311L747 262L853 344L960 282L1067 256L1173 353L1280 348L1387 326L1493 322L1600 281L1707 364L1813 303L1920 306L1920 0L1813 0L1707 0L1600 0L1493 0L1387 0L1280 0L1173 0L1067 0L960 0L853 0L747 0L640 0L533 0L427 0L320 0L213 0L107 0L0 0Z" fill="#cfcee4"></path><path d="M0 214L107 268L213 290L320 232L427 287L533 225L640 264L747 241L853 248L960 267L1067 274L1173 230L1280 290L1387 252L1493 216L1600 297L1707 241L1813 251L1920 276L1920 0L1813 0L1707 0L1600 0L1493 0L1387 0L1280 0L1173 0L1067 0L960 0L853 0L747 0L640 0L533 0L427 0L320 0L213 0L107 0L0 0Z" fill="#c7c6df"></path><path d="M0 214L107 253L213 226L320 214L427 237L533 260L640 192L747 227L853 212L960 191L1067 191L1173 200L1280 191L1387 170L1493 254L1600 230L1707 169L1813 211L1920 205L1920 0L1813 0L1707 0L1600 0L1493 0L1387 0L1280 0L1173 0L1067 0L960 0L853 0L747 0L640 0L533 0L427 0L320 0L213 0L107 0L0 0Z" fill="#bfbedb"></path><path d="M0 188L107 197L213 142L320 172L427 192L533 185L640 131L747 174L853 181L960 135L1067 186L1173 164L1280 171L1387 197L1493 128L1600 142L1707 177L1813 151L1920 203L1920 0L1813 0L1707 0L1600 0L1493 0L1387 0L1280 0L1173 0L1067 0L960 0L853 0L747 0L640 0L533 0L427 0L320 0L213 0L107 0L0 0Z" fill="#b7b6d6"></path><path d="M0 122L107 109L213 91L320 126L427 112L533 145L640 137L747 90L853 132L960 91L1067 102L1173 101L1280 136L1387 103L1493 97L1600 145L1707 147L1813 125L1920 96L1920 0L1813 0L1707 0L1600 0L1493 0L1387 0L1280 0L1173 0L1067 0L960 0L853 0L747 0L640 0L533 0L427 0L320 0L213 0L107 0L0 0Z" fill="#b0aed2"></path><path d="M0 75L107 79L213 80L320 71L427 40L533 66L640 89L747 88L853 48L960 88L1067 50L1173 86L1280 89L1387 71L1493 89L1600 84L1707 40L1813 78L1920 70L1920 0L1813 0L1707 0L1600 0L1493 0L1387 0L1280 0L1173 0L1067 0L960 0L853 0L747 0L640 0L533 0L427 0L320 0L213 0L107 0L0 0Z" fill="#a8a6cd"></path></svg>