<svg id="visual" viewBox="0 0 1920 1080" width="1920" height="1080" xmlns="http://www.w3.org/2000/svg" xmlns:xlink="http://www.w3.org/1999/xlink" version="1.1"><rect x="0" y="0" width="1920" height="1080" fill="#fff"></rect><path d="M0 504L107 465L213 565L320 625L427 590L533 532L640 547L747 601L853 566L960 589L1067 593L1173 599L1280 521L1387 454L1493 572L1600 484L1707 618L1813 558L1920 527L1920 1081L1813 1081L1707 1081L1600 1081L1493 1081L1387 1081L1280 1081L1173 1081L1067 1081L960 1081L853 1081L747 1081L640 1081L533 1081L427 1081L320 1081L213 1081L107 1081L0 1081Z" fill="#a8a6cd"></path><path d="M0 653L107 663L213 632L320 633L427 656L533 515L640 553L747 624L853 567L960 516L1067 563L1173 548L1280 560L1387 567L1493 555L1600 646L1707 528L1813 658L1920 591L1920 1081L1813 1081L1707 1081L1600 1081L1493 1081L1387 1081L1280 1081L1173 1081L1067 1081L960 1081L853 1081L747 1081L640 1081L533 1081L427 1081L320 1081L213 1081L107 1081L0 1081Z" fill="#b0aed2"></path><path d="M0 559L107 646L213 560L320 577L427 560L533 615L640 659L747 583L853 578L960 592L1067 634L1173 583L1280 682L1387 687L1493 553L1600 594L1707 615L1813 695L1920 617L1920 1081L1813 1081L1707 1081L1600 1081L1493 1081L1387 1081L1280 1081L1173 1081L1067 1081L960 1081L853 1081L747 1081L640 1081L533 1081L427 1081L320 1081L213 1081L107 1081L0 1081Z" fill="#b7b6d6"></path><path d="M0 692L107 715L213 685L320 741L427 609L533 700L640 637L747 741L853 625L960 678L1067 708L1173 673L1280 617L1387 741L1493 656L1600 631L1707 616L1813 686L1920 705L1920 1081L1813 1081L1707 1081L1600 1081L1493 1081L1387 1081L1280 1081L1173 1081L1067 1081L960 1081L853 1081L747 1081L640 1081L533 1081L427 1081L320 1081L213 1081L107 1081L0 1081Z" fill="#bfbedb"></path><path d="M0 775L107 681L213 699L320 653L427 720L533 679L640 726L747 767L853 653L960 714L1067 721L1173 655L1280 743L1387 766L1493 671L1600 667L1707 742L1813 721L1920 773L1920 1081L1813 1081L1707 1081L1600 1081L1493 1081L1387 1081L1280 1081L1173 1081L1067 1081L960 1081L853 1081L747 1081L640 1081L533 1081L427 1081L320 1081L213 1081L107 1081L0 1081Z" fill="#c7c6df"></path><path d="M0 811L107 731L213 717L320 746L427 702L533 721L640 707L747 702L853 747L960 733L1067 766L1173 784L1280 745L1387 790L1493 802L1600 746L1707 717L1813 745L1920 778L1920 1081L1813 1081L1707 1081L1600 1081L1493 1081L1387 1081L1280 1081L1173 1081L1067 1081L960 1081L853 1081L747 1081L640 1081L533 1081L427 1081L320 1081L213 1081L107 1081L0 1081Z" fill="#cfcee4"></path><path d="M0 855L107 763L213 801L320 754L427 772L533 803L640 806L747 849L853 777L960 832L1067 854L1173 769L1280 773L1387 793L1493 796L1600 832L1707 760L1813 813L1920 810L1920 1081L1813 1081L1707 1081L1600 1081L1493 1081L1387 1081L1280 1081L1173 1081L1067 1081L960 1081L853 1081L747 1081L640 1081L533 1081L427 1081L320 1081L213 1081L107 1081L0 1081Z" fill="#d7d6e8"></path><path d="M0 891L107 843L213 825L320 875L427 827L533 882L640 847L747 867L853 861L960 844L1067 838L1173 877L1280 824L1387 858L1493 889L1600 818L1707 867L1813 859L1920 837L1920 1081L1813 1081L1707 1081L1600 1081L1493 1081L1387 1081L1280 1081L1173 1081L1067 1081L960 1081L853 1081L747 1081L640 1081L533 1081L427 1081L320 1081L213 1081L107 1081L0 1081Z" fill="#dfdeed"></path><path d="M0 891L107 857L213 881L320 891L427 871L533 850L640 910L747 880L853 893L960 911L1067 911L1173 903L1280 911L1387 929L1493 856L1600 877L1707 930L1813 894L1920 899L1920 1081L1813 1081L1707 1081L1600 1081L1493 1081L1387 1081L1280 1081L1173 1081L1067 1081L960 1081L853 1081L747 1081L640 1081L533 1081L427 1081L320 1081L213 1081L107 1081L0 1081Z" fill="#e7e6f1"></path><path d="M0 914L107 906L213 954L320 927L427 911L533 916L640 963L747 926L853 920L960 960L1067 915L1173 934L1280 928L1387 906L1493 966L1600 954L1707 923L1813 946L1920 900L1920 1081L1813 1081L1707 1081L1600 1081L1493 1081L1387 1081L1280 1081L1173 1081L1067 1081L960 1081L853 1081L747 1081L640 1081L533 1081L427 1081L320 1081L213 1081L107 1081L0 1081Z" fill="#efeef6"></path><path d="M0 971L107 982L213 998L320 968L427 980L533 951L640 958L747 999L853 963L960 998L1067 989L1173 990L1280 959L1387 988L1493 993L1600 951L1707 950L1813 969L1920 995L1920 1081L1813 1081L1707 1081L1600 1081L1493 1081L1387 1081L1280 1081L1173 1081L1067 1081L960 1081L853 1081L747 1081L640 1081L533 1081L427 1081L320 1081L213 1081L107 1081L0 1081Z" fill="#f7f7fa"></path><path d="M0 1013L107 1009L213 1008L320 1016L427 1043L533 1020L640 1000L747 1001L853 1036L960 1001L1067 1034L1173 1003L1280 1000L1387 1016L1493 1001L1600 1005L1707 1043L1813 1010L1920 1017L1920 1081L1813 1081L1707 1081L1600 1081L1493 1081L1387 1081L1280 1081L1173 1081L1067 1081L960 1081L853 1081L747 1081L640 1081L533 1081L427 1081L320 1081L213 1081L107 1081L0 1081Z" fill="#ffffff"></path></svg>