<svg id="visual" viewBox="0 0 1920 1080" width="1920" height="1080" xmlns="http://www.w3.org/2000/svg" xmlns:xlink="http://www.w3.org/1999/xlink" version="1.1"><rect x="0" y="0" width="1920" height="1080" fill="#fff"></rect><path d="M0 264L101 447L202 443L303 302L404 485L505 375L606 405L707 483L808 269L909 341L1011 263L1112 439L1213 278L1314 344L1415 325L1516 486L1617 313L1718 363L1819 453L1920 398L1920 0L1819 0L1718 0L1617 0L1516 0L1415 0L1314 0L1213 0L1112 0L1011 0L909 0L808 0L707 0L606 0L505 0L404 0L303 0L202 0L101 0L0 0Z" fill="#a8a6cd"></path><path d="M0 332L101 355L202 307L303 282L404 371L505 376L606 275L707 368L808 319L909 354L1011 243L1112 382L1213 374L1314 401L1415 393L1516 332L1617 343L1718 387L1819 294L1920 312L1920 0L1819 0L1718 0L1617 0L1516 0L1415 0L1314 0L1213 0L1112 0L1011 0L909 0L808 0L707 0L606 0L505 0L404 0L303 0L202 0L101 0L0 0Z" fill="#b4b2d4"></path><path d="M0 358L101 293L202 272L303 278L404 372L505 368L606 346L707 225L808 249L909 292L1011 341L1112 207L1213 371L1314 368L1415 215L1516 334L1617 312L1718 300L1819 230L1920 258L1920 0L1819 0L1718 0L1617 0L1516 0L1415 0L1314 0L1213 0L1112 0L1011 0L909 0L808 0L707 0L606 0L505 0L404 0L303 0L202 0L101 0L0 0Z" fill="#c0bfdb"></path><path d="M0 171L101 211L202 227L303 220L404 219L505 318L606 196L707 309L808 201L909 313L1011 274L1112 171L1213 249L1314 258L1415 273L1516 262L1617 277L1718 271L1819 213L1920 167L1920 0L1819 0L1718 0L1617 0L1516 0L1415 0L1314 0L1213 0L1112 0L1011 0L909 0L808 0L707 0L606 0L505 0L404 0L303 0L202 0L101 0L0 0Z" fill="#cdcce2"></path><path d="M0 216L101 151L202 131L303 243L404 144L505 219L606 252L707 191L808 204L909 177L1011 233L1112 209L1213 201L1314 171L1415 138L1516 134L1617 200L1718 256L1819 161L1920 239L1920 0L1819 0L1718 0L1617 0L1516 0L1415 0L1314 0L1213 0L1112 0L1011 0L909 0L808 0L707 0L606 0L505 0L404 0L303 0L202 0L101 0L0 0Z" fill="#d9d8ea"></path><path d="M0 151L101 112L202 148L303 200L404 143L505 111L606 133L707 169L808 163L909 148L1011 162L1112 150L1213 124L1314 172L1415 134L1516 119L1617 114L1718 137L1819 130L1920 144L1920 0L1819 0L1718 0L1617 0L1516 0L1415 0L1314 0L1213 0L1112 0L1011 0L909 0L808 0L707 0L606 0L505 0L404 0L303 0L202 0L101 0L0 0Z" fill="#e6e5f1"></path><path d="M0 90L101 69L202 83L303 115L404 106L505 150L606 112L707 103L808 89L909 68L1011 65L1112 153L1213 109L1314 103L1415 127L1516 52L1617 82L1718 100L1819 103L1920 129L1920 0L1819 0L1718 0L1617 0L1516 0L1415 0L1314 0L1213 0L1112 0L1011 0L909 0L808 0L707 0L606 0L505 0L404 0L303 0L202 0L101 0L0 0Z" fill="#f2f2f8"></path><path d="M0 58L101 20L202 27L303 28L404 27L505 74L606 20L707 67L808 89L909 61L1011 59L1112 18L1213 79L1314 78L1415 50L1516 100L1617 24L1718 24L1819 33L1920 22L1920 0L1819 0L1718 0L1617 0L1516 0L1415 0L1314 0L1213 0L1112 0L1011 0L909 0L808 0L707 0L606 0L505 0L404 0L303 0L202 0L101 0L0 0Z" fill="#ffffff"></path></svg>