<svg id="visual" viewBox="0 0 1920 1080" width="1920" height="1080" xmlns="http://www.w3.org/2000/svg" xmlns:xlink="http://www.w3.org/1999/xlink" version="1.1"><rect x="0" y="0" width="1920" height="1080" fill="#fff"></rect><path d="M0 833L16.8 850.3C33.7 867.7 67.3 902.3 101 912.8C134.7 923.3 168.3 909.7 202 887.5C235.7 865.3 269.3 834.7 303 831C336.7 827.3 370.3 850.7 404 850.8C437.7 851 471.3 828 505 839.7C538.7 851.3 572.3 897.7 606 916.5C639.7 935.3 673.3 926.7 707 915.3C740.7 904 774.3 890 808 884.2C841.7 878.3 875.3 880.7 909.2 890.3C943 900 977 917 1010.8 913C1044.7 909 1078.3 884 1112 880.7C1145.7 877.3 1179.3 895.7 1213 893.8C1246.7 892 1280.3 870 1314 850C1347.7 830 1381.3 812 1415 819.3C1448.7 826.7 1482.3 859.3 1516 857.7C1549.7 856 1583.3 820 1617 811C1650.7 802 1684.3 820 1718 828.7C1751.7 837.3 1785.3 836.7 1819 838.5C1852.7 840.3 1886.3 844.7 1903.2 846.8L1920 849L1920 1081L1903.2 1081C1886.3 1081 1852.7 1081 1819 1081C1785.3 1081 1751.7 1081 1718 1081C1684.3 1081 1650.7 1081 1617 1081C1583.3 1081 1549.7 1081 1516 1081C1482.3 1081 1448.7 1081 1415 1081C1381.3 1081 1347.7 1081 1314 1081C1280.3 1081 1246.7 1081 1213 1081C1179.3 1081 1145.7 1081 1112 1081C1078.3 1081 1044.7 1081 1010.8 1081C977 1081 943 1081 909.2 1081C875.3 1081 841.7 1081 808 1081C774.3 1081 740.7 1081 707 1081C673.3 1081 639.7 1081 606 1081C572.3 1081 538.7 1081 505 1081C471.3 1081 437.7 1081 404 1081C370.3 1081 336.7 1081 303 1081C269.3 1081 235.7 1081 202 1081C168.3 1081 134.7 1081 101 1081C67.3 1081 33.7 1081 16.8 1081L0 1081Z" fill="#a8a6cd" stroke-linecap="round" stroke-linejoin="miter"></path></svg>