<svg width="1920" height="1080" viewBox="0 0 1920 1080" xmlns="http://www.w3.org/2000/svg"><rect width="1920" height="1080" fill="#c9c7ef"/><path d="M 0,1080 C 0,1080 0,270 0,270 C 127.5871794871795,269.06666666666666 255.174358974359,268.1333333333333 355,253 C 454.825641025641,237.86666666666665 526.8897435897436,208.53333333333333 615,199 C 703.1102564102564,189.46666666666667 807.2666666666667,199.73333333333335 921,201 C 1034.7333333333333,202.26666666666665 1158.0435897435898,194.53333333333336 1267,224 C 1375.9564102564102,253.46666666666664 1470.5589743589744,320.1333333333333 1577,334 C 1683.4410256410256,347.8666666666667 1801.7205128205128,308.93333333333334 1920,270 C 1920,270 1920,1080 1920,1080 Z" fill="#444484" opacity="0.15"/><path d="M 0,1080 C 0,1080 0,540 0,540 C 128.21794871794873,590.7282051282051 256.43589743589746,641.4564102564102 346,620 C 435.56410256410254,598.5435897435898 486.4743589743589,504.90256410256404 582,481 C 677.5256410256411,457.09743589743596 817.6666666666667,502.93333333333334 942,506 C 1066.3333333333333,509.06666666666666 1174.8589743589746,469.3641025641026 1272,472 C 1369.1410256410254,474.6358974358974 1454.8974358974358,519.6102564102564 1561,538 C 1667.1025641025642,556.3897435897436 1793.5512820512822,548.1948717948718 1920,540 C 1920,540 1920,1080 1920,1080 Z" fill="#444484" opacity="0.3"/><path d="M 0,1080 C 0,1080 0,810 0,810 C 128.6871794871795,863.3076923076924 257.374358974359,916.6153846153846 349,890 C 440.625641025641,863.3846153846154 495.18974358974356,756.8461538461539 601,760 C 706.8102564102564,763.1538461538461 863.8666666666668,875.9999999999999 990,906 C 1116.1333333333332,936.0000000000001 1211.3435897435897,883.1538461538462 1306,840 C 1400.6564102564103,796.8461538461538 1494.7589743589745,763.3846153846155 1597,760 C 1699.2410256410255,756.6153846153845 1809.6205128205129,783.3076923076923 1920,810 C 1920,810 1920,1080 1920,1080 Z" fill="#444484" opacity="0.44999999999999996"/></svg>