<svg width="1920" height="1080" viewBox="0 0 1920 1080" xmlns="http://www.w3.org/2000/svg"><rect width="1920" height="1080" fill="#c9c7ef"/><path d="M 0,1080 C 0,1080 0,270 0,270 C 71.00769230769234,290.49743589743593 142.01538461538468,310.9948717948718 269,321 C 395.9846153846153,331.0051282051282 578.9461538461537,330.5179487179487 694,290 C 809.0538461538463,249.4820512820513 856.2000000000003,168.9333333333333 947,170 C 1037.7999999999997,171.0666666666667 1172.2538461538459,253.74871794871802 1289,283 C 1405.7461538461541,312.251282051282 1504.7846153846156,288.07179487179485 1607,277 C 1709.2153846153844,265.92820512820515 1814.607692307692,267.9641025641026 1920,270 C 1920,270 1920,1080 1920,1080 Z" fill="#444484" opacity="0.15"/><path d="M 0,1080 C 0,1080 0,540 0,540 C 112.95897435897436,567.876923076923 225.91794871794872,595.7538461538462 332,569 C 438.0820512820513,542.2461538461538 537.2871794871795,460.8615384615385 643,457 C 748.7128205128205,453.1384615384615 860.9333333333332,526.8 978,582 C 1095.0666666666668,637.2 1216.9794871794873,673.9384615384615 1328,639 C 1439.0205128205127,604.0615384615385 1539.1487179487178,497.44615384615383 1636,469 C 1732.8512820512822,440.55384615384617 1826.4256410256412,490.2769230769231 1920,540 C 1920,540 1920,1080 1920,1080 Z" fill="#444484" opacity="0.3"/><path d="M 0,1080 C 0,1080 0,810 0,810 C 137.17435897435897,856.2589743589743 274.34871794871793,902.5179487179487 366,871 C 457.65128205128207,839.4820512820513 503.7794871794872,730.1871794871796 603,744 C 702.2205128205128,757.8128205128204 854.5333333333335,894.7333333333332 980,911 C 1105.4666666666665,927.2666666666668 1204.0871794871794,822.8794871794872 1289,765 C 1373.9128205128206,707.1205128205128 1445.1179487179488,695.7487179487179 1548,711 C 1650.8820512820512,726.2512820512821 1785.4410256410256,768.125641025641 1920,810 C 1920,810 1920,1080 1920,1080 Z" fill="#444484" opacity="0.44999999999999996"/></svg>